<?xml version="1.0" encoding="utf-8"?>
<!-- Generator: Adobe Illustrator 18.0.0, SVG Export Plug-In . SVG Version: 6.00 Build 0)  -->
<!DOCTYPE svg PUBLIC "-//W3C//DTD SVG 1.1//EN" "http://www.w3.org/Graphics/SVG/1.1/DTD/svg11.dtd">
<svg version="1.1" id="Layer_1" xmlns="http://www.w3.org/2000/svg" xmlns:xlink="http://www.w3.org/1999/xlink" x="0px" y="0px"
	 viewBox="0 0 220 93" enable-background="new 0 0 220 93" xml:space="preserve">
<g>
	<defs>
		<rect id="SVGID_1_" x="30.2" y="35.6" width="153.1" height="28.8"/>
	</defs>
	<clipPath id="SVGID_2_">
		<use xlink:href="#SVGID_1_"  overflow="visible"/>
	</clipPath>
	<path clip-path="url(#SVGID_2_)" fill="#EC1F31" d="M90.1,41.2h4.2v1.4c0.5-0.4,1.9-1.8,4.6-1.8c3.2,0,5.7,2.4,5.7,6.1v9.6h-4.5
		v-8.4c0-2.1-1-3.3-2.8-3.3c-1.8,0-2.8,1.2-2.8,3.3v8.4h-4.5V41.2z"/>
	<path clip-path="url(#SVGID_2_)" fill="#EC1F31" d="M137.1,48.8c0-2.1,1.6-3.9,3.8-3.9c2.2,0,3.8,1.7,3.8,3.9
		c0,2.1-1.6,3.9-3.8,3.9C138.7,52.7,137.1,50.9,137.1,48.8 M132.7,48.8c0,4.4,3.5,8,8.2,8c4.6,0,8.2-3.6,8.2-8c0-4.4-3.5-8-8.2-8
		C136.2,40.8,132.7,44.4,132.7,48.8"/>
	<path clip-path="url(#SVGID_2_)" fill="#EC1F31" d="M75.7,48.8c0-2.1,1.6-3.9,3.8-3.9c2.2,0,3.8,1.7,3.8,3.9c0,2.1-1.6,3.9-3.8,3.9
		C77.3,52.7,75.7,50.9,75.7,48.8 M71.3,48.8c0,4.4,3.5,8,8.2,8c4.6,0,8.2-3.6,8.2-8c0-4.4-3.5-8-8.2-8
		C74.8,40.8,71.3,44.4,71.3,48.8"/>
	<path clip-path="url(#SVGID_2_)" fill="#EC1F31" d="M170.7,41.2h4.5v15.3h-4.5V41.2z M170.7,35.6h4.5v3.9h-4.5V35.6z"/>
	<rect x="178.7" y="35.6" clip-path="url(#SVGID_2_)" fill="#EC1F31" width="4.5" height="20.9"/>
	<path clip-path="url(#SVGID_2_)" fill="#EC1F31" d="M163.5,48.8c0,2.2-1.7,3.8-3.8,3.8c-2.2,0-3.8-1.7-3.8-3.8
		c0-2.2,1.7-3.8,3.8-3.8C161.9,45,163.5,46.7,163.5,48.8 M155.9,56.5l0-1.2c0.3,0.2,1.7,1.5,4.6,1.5c3.9,0,7.4-3.5,7.4-8
		c0-4.5-3.4-8-7.4-8c-3.1,0-4.5,1.4-4.7,1.6v-6.8h-4.3v20.9H155.9z"/>
	<polygon clip-path="url(#SVGID_2_)" fill="#EC1F31" points="45,56.5 52.1,47.5 45.8,41.2 52,41.2 54.8,44.1 60,37.4 65.2,37.4 
		57.7,46.9 60.6,49.9 67.4,41.2 72.7,41.2 63.5,52.8 75.1,64.5 68.8,64.5 60.7,56.2 56.4,61.8 51.1,61.8 57.8,53.4 54.9,50.4 
		50.2,56.5 	"/>
	<polygon clip-path="url(#SVGID_2_)" fill="#EC1F31" points="30.2,35.6 43.9,35.6 43.9,39.5 34.8,39.5 34.8,43.8 43.5,43.8 
		43.5,47.6 34.8,47.6 34.8,52.6 43.9,52.6 43.9,56.5 30.2,56.5 	"/>
	<polygon clip-path="url(#SVGID_2_)" fill="#EC1F31" points="108.3,35.6 115.7,35.6 119.2,50.8 119.3,50.8 122.9,35.6 130.1,35.6 
		130.1,56.5 125.7,56.5 125.7,40.7 125.5,40.7 121.6,56.5 116.7,56.5 112.9,40.7 112.7,40.7 112.7,56.5 108.3,56.5 	"/>
</g>
</svg>
