<?xml version="1.0" encoding="utf-8"?>
<!-- Generator: Adobe Illustrator 17.0.0, SVG Export Plug-In . SVG Version: 6.00 Build 0)  -->
<!DOCTYPE svg PUBLIC "-//W3C//DTD SVG 1.1//EN" "http://www.w3.org/Graphics/SVG/1.1/DTD/svg11.dtd">
<svg version="1.1" id="Layer_1" xmlns="http://www.w3.org/2000/svg" xmlns:xlink="http://www.w3.org/1999/xlink" x="0px" y="0px"
	 width="1920px" height="1080px" viewBox="0 0 1920 1080" enable-background="new 0 0 1920 1080" xml:space="preserve">
<path fill="#FFFFFF" d="M779.212,482.073h40.642v14.015c4.204-3.737,18.686-17.285,44.38-17.285
	c30.832,0,55.124,22.891,55.124,58.394v92.496H876.38v-81.285c0-19.62-9.81-31.766-27.095-31.766
	c-16.818,0-27.095,11.212-27.095,31.766v80.818h-42.978V482.073z"/>
<path fill="#FFFFFF" d="M1231.883,555.883c0-20.555,15.416-36.905,36.438-36.905s36.438,16.818,36.438,36.905
	c0,20.555-15.416,36.905-36.438,36.905C1246.832,592.788,1231.883,575.971,1231.883,555.883 M1189.372,555.883
	c0,42.511,34.102,77.08,78.482,77.08s78.482-34.569,78.482-77.08c0-42.511-34.102-77.08-78.482-77.08
	C1223.007,478.803,1189.372,513.372,1189.372,555.883"/>
<path fill="#FFFFFF" d="M640.467,555.883c0-20.555,15.416-36.905,36.438-36.905c21.022,0,36.438,16.818,36.438,36.905
	c0,20.555-15.416,36.905-36.438,36.905C655.883,592.788,640.467,575.971,640.467,555.883 M597.956,555.883
	c0,42.511,34.102,77.08,78.482,77.08s78.482-34.569,78.482-77.08c0-42.511-34.102-77.08-78.482-77.08
	S597.956,513.372,597.956,555.883"/>
<path fill="#FFFFFF" d="M1555.153,482.073h43.445v147.153h-43.445V482.073z M1555.153,428.35h43.445v37.372h-43.445V428.35z"/>
<rect x="1632.234" y="428.35" fill="#FFFFFF" width="43.445" height="200.876"/>
<path fill="#FFFFFF" d="M1485.547,555.883c0,20.555-15.883,36.905-36.905,36.905c-21.022,0-36.905-15.883-36.905-36.905
	c0-21.022,15.883-36.905,36.905-36.905C1469.664,518.978,1485.547,534.861,1485.547,555.883 M1412.672,629.226l0.467-11.212
	c3.27,2.336,16.35,14.482,44.847,14.482c36.905,0,71.474-33.168,71.474-77.08s-32.234-77.08-71.007-77.08
	c-29.431,0-42.978,13.547-45.314,14.949v-65.401h-42.044v200.876h41.577V629.226z"/>
<polygon fill="#FFFFFF" points="344.292,629.226 412.964,543.737 352.234,482.073 412.496,482.073 439.591,510.102 489.11,446.102 
	539.562,446.102 467.153,537.664 495.183,566.161 560.584,482.073 611.037,482.073 522.745,593.723 634.861,706.307 
	573.664,706.307 495.65,627.358 454.54,680.613 403.62,680.613 468.555,599.796 440.058,571.299 394.745,629.226 "/>
<polygon fill="#FFFFFF" points="201.81,428.35 334.482,428.35 334.482,465.723 247.124,465.723 247.124,507.766 330.277,507.766 
	330.277,543.737 247.124,543.737 247.124,591.854 334.482,591.854 334.482,629.226 201.81,629.226 "/>
<polygon fill="#FFFFFF" points="953.927,428.35 1025.401,428.35 1059.036,575.036 1060.438,575.036 1095.007,428.35 
	1164.146,428.35 1164.146,629.226 1121.635,629.226 1121.635,477.869 1119.766,477.869 1082.394,629.226 1034.745,629.226 
	998.307,477.869 996.438,477.869 996.438,629.226 953.927,629.226 "/>
</svg>
